<svg width="62" height="60" viewBox="0 0 62 60" fill="none" xmlns="http://www.w3.org/2000/svg">
<path d="M61.0225 26.3003C61.0225 38.3625 51.6057 48.528 38.7657 51.6289C36.1437 52.2621 33.3789 52.6007 30.5225 52.6007C27.666 52.6007 24.9012 52.2621 22.2792 51.6289C9.43919 48.528 0.0224609 38.3625 0.0224609 26.3003C0.0224609 11.7751 13.6778 0 30.5225 0C47.3671 0 61.0225 11.7751 61.0225 26.3003Z" fill="white"/>
<path d="M38.7657 51.6289C36.1437 52.2621 33.3789 52.6007 30.5225 52.6007C27.666 52.6007 24.9012 52.2621 22.2792 51.6289L29.8815 59.7361C30.2114 60.088 30.8335 60.088 31.1635 59.7361L38.7657 51.6289Z" fill="white"/>
</svg>
