<svg width="62" height="60" viewBox="0 0 62 60" fill="none" xmlns="http://www.w3.org/2000/svg">
<path d="M61.3076 26.3003C61.3076 38.3625 51.8909 48.528 39.0509 51.6289C36.4289 52.2621 33.6641 52.6007 30.8076 52.6007C27.9511 52.6007 25.1864 52.2621 22.5644 51.6289C9.72435 48.528 0.307617 38.3625 0.307617 26.3003C0.307617 11.7751 13.9629 0 30.8076 0C47.6523 0 61.3076 11.7751 61.3076 26.3003Z" fill="white"/>
<path d="M39.0509 51.6289C36.4289 52.2621 33.6641 52.6007 30.8076 52.6007C27.9511 52.6007 25.1864 52.2621 22.5644 51.6289L30.1666 59.7361C30.4966 60.088 31.1187 60.088 31.4486 59.7361L39.0509 51.6289Z" fill="white"/>
</svg>
