<svg width="60" height="51" viewBox="0 0 60 51" fill="none" xmlns="http://www.w3.org/2000/svg">
<g clip-path="url(#clip0_112_2306)">
<path d="M30 28.6875C39.3164 28.6875 46.875 22.2627 46.875 14.3438C46.875 6.4248 39.3164 0 30 0C20.6836 0 13.125 6.4248 13.125 14.3438C13.125 22.2627 20.6836 28.6875 30 28.6875ZM45 31.875H38.543C35.9414 32.891 33.0469 33.4688 30 33.4688C26.9531 33.4688 24.0703 32.891 21.457 31.875H15C6.71484 31.875 0 37.5826 0 44.625V46.2188C0 48.8584 2.51953 51 5.625 51H54.375C57.4805 51 60 48.8584 60 46.2188V44.625C60 37.5826 53.2852 31.875 45 31.875Z" fill="#FAFAFA"/>
</g>
<defs>
<clipPath id="clip0_112_2306">
<rect width="60" height="51" fill="white"/>
</clipPath>
</defs>
</svg>
