<svg width="28" height="28" viewBox="0 0 28 28" fill="none" xmlns="http://www.w3.org/2000/svg">
<path d="M23.7926 11.5657C23.7926 19.4966 13.5958 26.2945 13.5958 26.2945C13.5958 26.2945 3.39893 19.4966 3.39893 11.5657C3.39893 8.86137 4.47323 6.26776 6.38551 4.35548C8.29779 2.4432 10.8914 1.3689 13.5958 1.3689C16.3001 1.3689 18.8937 2.4432 20.806 4.35548C22.7183 6.26776 23.7926 8.86137 23.7926 11.5657Z" stroke="white" stroke-width="2.62588" stroke-linecap="round" stroke-linejoin="round"/>
<path d="M13.5958 14.9647C15.473 14.9647 16.9947 13.4429 16.9947 11.5657C16.9947 9.68856 15.473 8.16679 13.5958 8.16679C11.7186 8.16679 10.1968 9.68856 10.1968 11.5657C10.1968 13.4429 11.7186 14.9647 13.5958 14.9647Z" stroke="white" stroke-width="2.62588" stroke-linecap="round" stroke-linejoin="round"/>
</svg>
