<svg width="22" height="30" viewBox="0 0 22 30" fill="none" xmlns="http://www.w3.org/2000/svg">
<path d="M2.64741 25.7687C0.441787 23.4431 -1.65761 18.0858 1.94577 12.6861L3.96251 16.5336C6.50266 15.3405 6.52899 12.5172 6.67286 7.63091C8.05476 8.045 8.93415 8.0338 10.3082 6.64037C11.0055 5.0692 11.0692 3.70857 10.3082 0C14.3092 2.65146 17.3678 6.0945 18.2577 8.14109C19.1476 10.1877 17.8713 14.1643 20.0128 14.7674L21.6646 12.6861C21.9892 16.6522 22.5381 20.2579 20.6875 23.4386C18.8368 26.6192 15.6362 29.6551 11.3691 29.6101C7.10203 29.5651 4.85303 28.0943 2.64741 25.7687Z" stroke="white" stroke-width="3.65424" stroke-linecap="round" stroke-linejoin="round"/>
</svg>
