<svg width="16" height="5" viewBox="0 0 16 5" fill="none" xmlns="http://www.w3.org/2000/svg">
<path d="M0.5 0C0.632608 0 0.759785 0.052679 0.853553 0.146447C0.947321 0.240215 1 0.367392 1 0.5V3C1 3.26522 1.10536 3.51957 1.29289 3.70711C1.48043 3.89464 1.73478 4 2 4V3.70711H0.129171L14 4C14.2652 4 14.5196 3.89464 14.7071 3.70711C14.8946 3.51957 15 3.26522 15 3V0.5C15 0.367392 15.0527 0.240215 15.1464 0.146447C15.2402 0.052679 15.3674 0 15.5 0C15.6326 0 15.7598 0.052679 15.8536 0.146447C15.9473 0.240215 16 0.367392 16 0.5V3C16 3.53043 15.7893 4.03914 15.4142 4.41421C15.0391 4.78929 14.5304 5 14 5H2C1.46957 5 0.960859 4.78929 0.585786 4.41421C0.210714 4.03914 0 3.53043 0 3V0.5C0 0.367392 0.0526785 0.240215 0.146447 0.146447C0.240215 0.052679 0.367392 0 0.5 0Z" fill="#737373"/>
</svg>
