<svg width="24" height="25" viewBox="0 0 24 25" fill="none" xmlns="http://www.w3.org/2000/svg">
<path d="M12.5 1.53589C9.51488 1.53589 9.1395 1.54964 7.96663 1.60189C6.79375 1.65689 5.99487 1.84114 5.295 2.11339C4.56088 2.38951 3.89593 2.82265 3.34663 3.38251C2.7871 3.9321 2.35402 4.59697 2.0775 5.33089C1.80525 6.02939 1.61963 6.82964 1.566 7.99839C1.51375 9.17401 1.5 9.54801 1.5 12.5373C1.5 15.5238 1.51375 15.8978 1.566 17.0706C1.621 18.2421 1.80525 19.041 2.0775 19.7409C2.35938 20.4641 2.73475 21.0774 3.34663 21.6893C3.95713 22.3011 4.57037 22.6779 5.29363 22.9584C5.99487 23.2306 6.79238 23.4163 7.96388 23.4699C9.13813 23.5221 9.51213 23.5359 12.5 23.5359C15.4879 23.5359 15.8605 23.5221 17.0347 23.4699C18.2049 23.4149 19.0065 23.2306 19.7064 22.9584C20.44 22.6821 21.1045 22.249 21.6534 21.6893C22.2652 21.0774 22.6406 20.4641 22.9225 19.7409C23.1934 19.041 23.379 18.2421 23.434 17.0706C23.4862 15.8978 23.5 15.5238 23.5 12.5359C23.5 9.54801 23.4862 9.17401 23.434 7.99976C23.379 6.82964 23.1934 6.02939 22.9225 5.33089C22.646 4.59695 22.2129 3.93207 21.6534 3.38251C21.1042 2.82244 20.4392 2.38928 19.705 2.11339C19.0037 1.84114 18.2035 1.65551 17.0334 1.60189C15.8591 1.54964 15.4865 1.53589 12.4973 1.53589H12.5014H12.5ZM11.5141 3.51864H12.5014C15.4384 3.51864 15.7862 3.52826 16.9454 3.58189C18.0179 3.63001 18.6009 3.81014 18.9886 3.96001C19.5015 4.15939 19.8686 4.39864 20.2536 4.78364C20.6386 5.16864 20.8765 5.53439 21.0759 6.04864C21.2271 6.43501 21.4059 7.01801 21.454 8.09051C21.5076 9.24964 21.5186 9.59751 21.5186 12.5331C21.5186 15.4688 21.5076 15.818 21.454 16.9771C21.4059 18.0496 21.2258 18.6313 21.0759 19.019C20.8995 19.4966 20.618 19.9285 20.2522 20.2826C19.8672 20.6676 19.5015 20.9055 18.9873 21.1049C18.6023 21.2561 18.0192 21.4349 16.9454 21.4844C15.7862 21.5366 15.4384 21.549 12.5014 21.549C9.56437 21.549 9.21513 21.5366 8.056 21.4844C6.9835 21.4349 6.40188 21.2561 6.01412 21.1049C5.53631 20.9288 5.10405 20.6478 4.74913 20.2826C4.38303 19.9279 4.10112 19.4957 3.92412 19.0176C3.77425 18.6313 3.59413 18.0483 3.546 16.9758C3.49375 15.8166 3.48275 15.4688 3.48275 12.5304C3.48275 9.59339 3.49375 9.24689 3.546 8.08776C3.5955 7.01526 3.77425 6.43226 3.9255 6.04451C4.12488 5.53164 4.36413 5.16451 4.74913 4.77951C5.13412 4.39451 5.49987 4.15664 6.01412 3.95726C6.40188 3.80601 6.9835 3.62726 8.056 3.57776C9.07075 3.53101 9.464 3.51726 11.5141 3.51589V3.51864ZM18.3726 5.34464C18.1993 5.34464 18.0276 5.37878 17.8675 5.44512C17.7073 5.51145 17.5618 5.60868 17.4392 5.73126C17.3167 5.85383 17.2194 5.99935 17.1531 6.1595C17.0868 6.31965 17.0526 6.49129 17.0526 6.66464C17.0526 6.83798 17.0868 7.00963 17.1531 7.16978C17.2194 7.32993 17.3167 7.47545 17.4392 7.59802C17.5618 7.72059 17.7073 7.81782 17.8675 7.88416C18.0276 7.9505 18.1993 7.98464 18.3726 7.98464C18.7227 7.98464 19.0585 7.84557 19.306 7.59802C19.5536 7.35047 19.6926 7.01472 19.6926 6.66464C19.6926 6.31455 19.5536 5.97881 19.306 5.73126C19.0585 5.48371 18.7227 5.34464 18.3726 5.34464ZM12.5014 6.88739C11.7521 6.8757 11.008 7.01318 10.3123 7.29183C9.61671 7.57048 8.98346 7.98474 8.44946 8.51047C7.91546 9.03621 7.49138 9.66292 7.20191 10.3541C6.91244 11.0453 6.76336 11.7872 6.76336 12.5366C6.76336 13.2859 6.91244 14.0278 7.20191 14.719C7.49138 15.4102 7.91546 16.0369 8.44946 16.5627C8.98346 17.0884 9.61671 17.5027 10.3123 17.7813C11.008 18.06 11.7521 18.1975 12.5014 18.1858C13.9844 18.1626 15.3988 17.5573 16.4393 16.5004C17.4799 15.4434 18.0631 14.0197 18.0631 12.5366C18.0631 11.0534 17.4799 9.62971 16.4393 8.57279C15.3988 7.51588 13.9844 6.91053 12.5014 6.88739ZM12.5014 8.86876C13.474 8.86876 14.4067 9.25512 15.0944 9.94284C15.7821 10.6306 16.1685 11.5633 16.1685 12.5359C16.1685 13.5085 15.7821 14.4412 15.0944 15.1289C14.4067 15.8167 13.474 16.203 12.5014 16.203C11.5288 16.203 10.596 15.8167 9.90833 15.1289C9.22061 14.4412 8.83425 13.5085 8.83425 12.5359C8.83425 11.5633 9.22061 10.6306 9.90833 9.94284C10.596 9.25512 11.5288 8.86876 12.5014 8.86876Z" fill="#59B3D2"/>
</svg>
