<svg width="43" height="40" viewBox="0 0 43 40" fill="none" xmlns="http://www.w3.org/2000/svg">
<g clip-path="url(#clip0_63_1220)">
<path d="M21.5 22.5C28.1768 22.5 33.5938 17.4609 33.5938 11.25C33.5938 5.03906 28.1768 0 21.5 0C14.8232 0 9.40625 5.03906 9.40625 11.25C9.40625 17.4609 14.8232 22.5 21.5 22.5ZM32.25 25H27.6225C25.758 25.7969 23.6836 26.25 21.5 26.25C19.3164 26.25 17.2504 25.7969 15.3775 25H10.75C4.8123 25 0 29.4766 0 35V36.25C0 38.3203 1.80566 40 4.03125 40H38.9688C41.1943 40 43 38.3203 43 36.25V35C43 29.4766 38.1877 25 32.25 25Z" fill="#FAFAFA"/>
</g>
<defs>
<clipPath id="clip0_63_1220">
<rect width="43" height="40" fill="white"/>
</clipPath>
</defs>
</svg>
