<svg width="62" height="60" viewBox="0 0 62 60" fill="none" xmlns="http://www.w3.org/2000/svg">
<path d="M61.5537 26.3003C61.5537 38.3625 52.137 48.528 39.297 51.6289C36.6749 52.2621 33.9102 52.6007 31.0537 52.6007C28.1972 52.6007 25.4325 52.2621 22.8105 51.6289C9.97044 48.528 0.553711 38.3625 0.553711 26.3003C0.553711 11.7751 14.209 0 31.0537 0C47.8984 0 61.5537 11.7751 61.5537 26.3003Z" fill="white"/>
<path d="M39.297 51.6289C36.6749 52.2621 33.9102 52.6007 31.0537 52.6007C28.1972 52.6007 25.4325 52.2621 22.8105 51.6289L30.4127 59.7361C30.7426 60.088 31.3648 60.088 31.6947 59.7361L39.297 51.6289Z" fill="white"/>
</svg>
