<svg width="62" height="60" viewBox="0 0 62 60" fill="none" xmlns="http://www.w3.org/2000/svg">
<path d="M61.1758 26.3003C61.1758 38.3625 51.759 48.528 38.919 51.6289C36.297 52.2621 33.5323 52.6007 30.6758 52.6007C27.8193 52.6007 25.0545 52.2621 22.4325 51.6289C9.59251 48.528 0.175781 38.3625 0.175781 26.3003C0.175781 11.7751 13.8311 0 30.6758 0C47.5205 0 61.1758 11.7751 61.1758 26.3003Z" fill="white"/>
<path d="M38.919 51.6289C36.297 52.2621 33.5323 52.6007 30.6758 52.6007C27.8193 52.6007 25.0545 52.2621 22.4325 51.6289L30.0348 59.7361C30.3647 60.088 30.9868 60.088 31.3168 59.7361L38.919 51.6289Z" fill="white"/>
</svg>
