<svg width="60" height="53" viewBox="0 0 60 53" fill="none" xmlns="http://www.w3.org/2000/svg">
<path d="M30 29.8785C39.3164 29.8785 46.875 23.265 46.875 15.1134C46.875 6.9619 39.3164 0.348389 30 0.348389C20.6836 0.348389 13.125 6.9619 13.125 15.1134C13.125 23.265 20.6836 29.8785 30 29.8785ZM45 33.1596H38.543C35.9414 34.2055 33.0469 34.8002 30 34.8002C26.9531 34.8002 24.0703 34.2055 21.457 33.1596H15C6.71484 33.1596 0 39.0349 0 46.2841V47.9247C0 50.6418 2.51953 52.8464 5.625 52.8464H54.375C57.4805 52.8464 60 50.6418 60 47.9247V46.2841C60 39.0349 53.2852 33.1596 45 33.1596Z" fill="#FAFAFA"/>
</svg>
