<svg width="24" height="25" viewBox="0 0 24 25" fill="none" xmlns="http://www.w3.org/2000/svg">
<g clip-path="url(#clip0_49_1698)">
<path fill-rule="evenodd" clip-rule="evenodd" d="M23.5 12.1063C23.5 5.71599 18.3515 0.535889 12.0014 0.535889C5.64848 0.537326 0.5 5.71599 0.5 12.1078C0.5 17.8815 4.7056 22.6677 10.2019 23.5359V15.451H7.28415V12.1078H10.2048V9.55651C10.2048 6.65744 11.9224 5.05626 14.5484 5.05626C15.8075 5.05626 17.1226 5.28192 17.1226 5.28192V8.12782H15.6724C14.2451 8.12782 13.7995 9.02039 13.7995 9.93596V12.1063H16.9875L16.4787 15.4495H13.7981V23.5345C19.2944 22.6663 23.5 17.88 23.5 12.1063Z" fill="#59B3D2"/>
</g>
<defs>
<clipPath id="clip0_49_1698">
<rect width="24" height="24" fill="white" transform="translate(0 0.535889)"/>
</clipPath>
</defs>
</svg>
