<svg width="28" height="28" viewBox="0 0 28 28" fill="none" xmlns="http://www.w3.org/2000/svg">
<path d="M23.7926 11.3297C23.7926 19.2605 13.5958 26.0584 13.5958 26.0584C13.5958 26.0584 3.39893 19.2605 3.39893 11.3297C3.39893 8.62529 4.47323 6.03168 6.38551 4.1194C8.29779 2.20712 10.8914 1.13281 13.5958 1.13281C16.3001 1.13281 18.8937 2.20712 20.806 4.1194C22.7183 6.03168 23.7926 8.62529 23.7926 11.3297Z" stroke="white" stroke-width="2.62588" stroke-linecap="round" stroke-linejoin="round"/>
<path d="M13.5958 14.7286C15.473 14.7286 16.9947 13.2068 16.9947 11.3297C16.9947 9.45247 15.473 7.93071 13.5958 7.93071C11.7186 7.93071 10.1968 9.45247 10.1968 11.3297C10.1968 13.2068 11.7186 14.7286 13.5958 14.7286Z" stroke="white" stroke-width="2.62588" stroke-linecap="round" stroke-linejoin="round"/>
</svg>
