<svg width="62" height="60" viewBox="0 0 62 60" fill="none" xmlns="http://www.w3.org/2000/svg">
<path d="M61.54 26.3003C61.54 38.3625 52.1233 48.528 39.2833 51.6289C36.6613 52.2621 33.8965 52.6007 31.04 52.6007C28.1836 52.6007 25.4188 52.2621 22.7968 51.6289C9.95677 48.528 0.540039 38.3625 0.540039 26.3003C0.540039 11.7751 14.1954 0 31.04 0C47.8847 0 61.54 11.7751 61.54 26.3003Z" fill="white"/>
<path d="M39.2833 51.6289C36.6613 52.2621 33.8965 52.6007 31.04 52.6007C28.1836 52.6007 25.4188 52.2621 22.7968 51.6289L30.399 59.7361C30.729 60.088 31.3511 60.088 31.681 59.7361L39.2833 51.6289Z" fill="white"/>
</svg>
