<svg width="62" height="60" viewBox="0 0 62 60" fill="none" xmlns="http://www.w3.org/2000/svg">
<path d="M61.8418 26.3003C61.8418 38.3625 52.4251 48.528 39.585 51.6289C36.963 52.2621 34.1983 52.6007 31.3418 52.6007C28.4853 52.6007 25.7206 52.2621 23.0985 51.6289C10.2585 48.528 0.841797 38.3625 0.841797 26.3003C0.841797 11.7751 14.4971 0 31.3418 0C48.1865 0 61.8418 11.7751 61.8418 26.3003Z" fill="white"/>
<path d="M39.585 51.6289C36.963 52.2621 34.1983 52.6007 31.3418 52.6007C28.4853 52.6007 25.7206 52.2621 23.0985 51.6289L30.7008 59.7361C31.0307 60.088 31.6529 60.088 31.9828 59.7361L39.585 51.6289Z" fill="white"/>
</svg>
