<svg width="62" height="60" viewBox="0 0 62 60" fill="none" xmlns="http://www.w3.org/2000/svg">
<path d="M61.2549 26.3003C61.2549 38.3625 51.8382 48.528 38.9981 51.6289C36.3761 52.2621 33.6114 52.6007 30.7549 52.6007C27.8984 52.6007 25.1336 52.2621 22.5116 51.6289C9.67161 48.528 0.254883 38.3625 0.254883 26.3003C0.254883 11.7751 13.9102 0 30.7549 0C47.5996 0 61.2549 11.7751 61.2549 26.3003Z" fill="white"/>
<path d="M38.9981 51.6289C36.3761 52.2621 33.6114 52.6007 30.7549 52.6007C27.8984 52.6007 25.1336 52.2621 22.5116 51.6289L30.1139 59.7361C30.4438 60.088 31.0659 60.088 31.3959 59.7361L38.9981 51.6289Z" fill="white"/>
</svg>
