<svg width="62" height="60" viewBox="0 0 62 60" fill="none" xmlns="http://www.w3.org/2000/svg">
<path d="M61.8779 26.3003C61.8779 38.3625 52.4612 48.528 39.6212 51.6289C36.9992 52.2621 34.2344 52.6007 31.3779 52.6007C28.5215 52.6007 25.7567 52.2621 23.1347 51.6289C10.2947 48.528 0.87793 38.3625 0.87793 26.3003C0.87793 11.7751 14.5332 0 31.3779 0C48.2226 0 61.8779 11.7751 61.8779 26.3003Z" fill="white"/>
<path d="M39.6212 51.6289C36.9992 52.2621 34.2344 52.6007 31.3779 52.6007C28.5215 52.6007 25.7567 52.2621 23.1347 51.6289L30.7369 59.7361C31.0669 60.088 31.689 60.088 32.0189 59.7361L39.6212 51.6289Z" fill="white"/>
</svg>
