<svg width="7" height="11" viewBox="0 0 7 11" fill="none" xmlns="http://www.w3.org/2000/svg">
<path d="M3.14663 10.854C3.19308 10.9006 3.24825 10.9375 3.309 10.9627C3.36974 10.9879 3.43486 11.0009 3.50063 11.0009C3.5664 11.0009 3.63152 10.9879 3.69227 10.9627C3.75301 10.9375 3.80819 10.9006 3.85463 10.854L6.85463 7.854C6.94852 7.76011 7.00126 7.63278 7.00126 7.5C7.00126 7.36722 6.94852 7.23989 6.85463 7.146C6.76075 7.05211 6.63341 6.99937 6.50063 6.99937C6.36786 6.99937 6.24052 7.05211 6.14663 7.146L4.00063 9.293V0.5C4.00063 0.367392 3.94795 0.240215 3.85419 0.146447C3.76042 0.0526784 3.63324 0 3.50063 0C3.36802 0 3.24085 0.0526784 3.14708 0.146447C3.05331 0.240215 3.00063 0.367392 3.00063 0.5V9.293L0.854632 7.146C0.760745 7.05211 0.633408 6.99937 0.500632 6.99937C0.367856 6.99937 0.240518 7.05211 0.146632 7.146C0.0527451 7.23989 0 7.36722 0 7.5C0 7.63278 0.0527451 7.76011 0.146632 7.854L3.14663 10.854Z" fill="#737373"/>
</svg>
